<svg width="25" height="24" viewBox="0 0 25 24" fill="none" xmlns="http://www.w3.org/2000/svg">
<g clip-path="url(#clip0_127_1218)">
<path fill-rule="evenodd" clip-rule="evenodd" d="M5.46875 0H18.6289C20.0651 0.00414176 21.4413 0.579159 22.4568 1.59943C23.4724 2.6197 24.0447 4.0023 24.0488 5.44518V18.5568C24.0442 19.9993 23.4716 21.3814 22.4561 22.4013C21.4406 23.4211 20.0648 23.9959 18.6289 24H5.46875C4.0329 23.9959 2.65701 23.4211 1.64153 22.4013C0.626043 21.3814 0.0534656 19.9993 0.0488281 18.5568V5.44518C0.0529507 4.0023 0.6253 2.6197 1.64084 1.59943C2.65638 0.579159 4.03257 0.00414176 5.46875 0Z" fill="black"/>
<g clip-path="url(#clip1_127_1218)">
<path d="M4.71194 18.375H7.41682V11.8066L3.55469 8.91211V17.2288C3.55469 17.8628 4.07794 18.375 4.71194 18.375Z" fill="white"/>
<path d="M16.7012 18.375H19.4061C20.0525 18.375 20.5633 17.8518 20.5633 17.2178V8.91211L16.7012 11.8066V18.375Z" fill="white"/>
<path d="M16.7012 6.78437V11.8051L20.5647 8.91062V7.36299C20.5647 5.9275 18.9285 5.11354 17.7809 5.9718L16.7012 6.78437Z" fill="white"/>
<path d="M7.4165 11.8079V6.78711L12.0594 10.2713L16.7009 6.78711V11.8079L12.0594 15.281L7.4165 11.8079Z" fill="white"/>
<path d="M3.55469 7.36637V8.91399L7.41821 11.8085V6.78774L6.33847 5.97517C5.1909 5.1183 3.55469 5.94195 3.55469 7.36637Z" fill="white"/>
</g>
</g>
<defs>
<clipPath id="clip0_127_1218">
<rect width="24.1118" height="24" fill="white"/>
</clipPath>
<clipPath id="clip1_127_1218">
<rect width="17.01" height="12.752" fill="white" transform="translate(3.55469 5.62305)"/>
</clipPath>
</defs>
</svg>
