<svg width="25" height="24" viewBox="0 0 25 24" fill="none" xmlns="http://www.w3.org/2000/svg">
<path d="M12.3335 1.25H12.2761C9.96772 1.24999 8.15869 1.24998 6.7472 1.43975C5.30247 1.63399 4.16244 2.03933 3.26763 2.93414C2.37282 3.82895 1.96748 4.96897 1.77324 6.41371C1.58347 7.82519 1.58348 9.63423 1.5835 11.9426V12.0574C1.58348 14.3658 1.58347 16.1748 1.77324 17.5863C1.96748 19.031 2.37282 20.1711 3.26763 21.0659C4.16244 21.9607 5.30247 22.366 6.7472 22.5603C8.15869 22.75 9.96773 22.75 12.2761 22.75H12.3909C14.6993 22.75 16.5083 22.75 17.9198 22.5603C19.3645 22.366 20.5046 21.9607 21.3994 21.0659C22.2942 20.1711 22.6995 19.031 22.8937 17.5863C23.0835 16.1748 23.0835 14.3658 23.0835 12.0574V12C23.0835 11.5858 22.7477 11.25 22.3335 11.25C21.9193 11.25 21.5835 11.5858 21.5835 12C21.5835 14.3782 21.5819 16.0864 21.4071 17.3864C21.2352 18.6648 20.9084 19.4355 20.3387 20.0052C19.769 20.5749 18.9983 20.9018 17.7199 21.0736C16.4199 21.2484 14.7117 21.25 12.3335 21.25C9.95527 21.25 8.24705 21.2484 6.94707 21.0736C5.66867 20.9018 4.89795 20.5749 4.32829 20.0052C3.75864 19.4355 3.43174 18.6648 3.25987 17.3864C3.08509 16.0864 3.0835 14.3782 3.0835 12C3.0835 9.62178 3.08509 7.91356 3.25987 6.61358C3.43174 5.33517 3.75864 4.56445 4.32829 3.9948C4.89795 3.42514 5.66867 3.09825 6.94707 2.92637C8.24705 2.75159 9.95527 2.75 12.3335 2.75C12.7477 2.75 13.0835 2.41421 13.0835 2C13.0835 1.58579 12.7477 1.25 12.3335 1.25Z" fill="#603AA5"/>
<path d="M12.8032 10.4697C12.5103 10.7626 12.5103 11.2374 12.8032 11.5303C13.0961 11.8232 13.5709 11.8232 13.8638 11.5303L21.5835 3.81066V7.34375C21.5835 7.75796 21.9193 8.09375 22.3335 8.09375C22.7477 8.09375 23.0835 7.75796 23.0835 7.34375V2C23.0835 1.58579 22.7477 1.25 22.3335 1.25H16.9897C16.5755 1.25 16.2397 1.58579 16.2397 2C16.2397 2.41421 16.5755 2.75 16.9897 2.75H20.5228L12.8032 10.4697Z" fill="#603AA5"/>
</svg>
