<svg width="20" height="20" viewBox="0 0 20 20" fill="none" xmlns="http://www.w3.org/2000/svg">
<path d="M9.99984 1.04102H9.95202C8.02836 1.04101 6.52083 1.041 5.34459 1.19914C4.14065 1.361 3.19063 1.69879 2.44495 2.44446C1.69928 3.19014 1.36149 4.14016 1.19963 5.3441C1.04148 6.52034 1.04149 8.02787 1.0415 9.95153V10.0472C1.04149 11.9708 1.04148 13.4784 1.19963 14.6546C1.36149 15.8585 1.69928 16.8086 2.44495 17.5542C3.19063 18.2999 4.14065 18.6377 5.34459 18.7996C6.52083 18.9577 8.02836 18.9577 9.95203 18.9577H10.0476C11.9713 18.9577 13.4788 18.9577 14.6551 18.7996C15.859 18.6377 16.809 18.2999 17.5547 17.5542C18.3004 16.8086 18.6382 15.8585 18.8 14.6546C18.9582 13.4784 18.9582 11.9708 18.9582 10.0472V9.99935C18.9582 9.65417 18.6783 9.37435 18.3332 9.37435C17.988 9.37435 17.7082 9.65417 17.7082 9.99935C17.7082 11.9812 17.7068 13.4047 17.5612 14.488C17.418 15.5534 17.1456 16.1956 16.6708 16.6704C16.1961 17.1451 15.5539 17.4175 14.4885 17.5607C13.4052 17.7064 11.9817 17.7077 9.99984 17.7077C8.01798 17.7077 6.59447 17.7064 5.51115 17.5607C4.44582 17.4175 3.80355 17.1451 3.32883 16.6704C2.85412 16.1956 2.58171 15.5534 2.43848 14.488C2.29283 13.4047 2.2915 11.9812 2.2915 9.99935C2.2915 8.0175 2.29283 6.59398 2.43848 5.51066C2.58171 4.44533 2.85412 3.80306 3.32883 3.32835C3.80355 2.85363 4.44582 2.58122 5.51115 2.43799C6.59447 2.29234 8.01798 2.29102 9.99984 2.29102C10.345 2.29102 10.6248 2.01119 10.6248 1.66602C10.6248 1.32084 10.345 1.04102 9.99984 1.04102Z" fill="white"/>
<path d="M10.3912 8.72407C10.1472 8.96815 10.1472 9.36388 10.3912 9.60796C10.6353 9.85203 11.031 9.85203 11.2751 9.60796L17.7082 3.1749V6.11914C17.7082 6.46432 17.988 6.74414 18.3332 6.74414C18.6783 6.74414 18.9582 6.46432 18.9582 6.11914V1.66602C18.9582 1.32084 18.6783 1.04102 18.3332 1.04102H13.88C13.5349 1.04102 13.255 1.32084 13.255 1.66602C13.255 2.01119 13.5349 2.29102 13.88 2.29102H16.8243L10.3912 8.72407Z" fill="white"/>
</svg>
