<svg width="25" height="24" viewBox="0 0 25 24" fill="none" xmlns="http://www.w3.org/2000/svg">
<path d="M12.667 1.25H12.6096C10.3012 1.24999 8.49218 1.24998 7.0807 1.43975C5.63596 1.63399 4.49594 2.03933 3.60113 2.93414C2.70632 3.82895 2.30098 4.96897 2.10674 6.41371C1.91697 7.82519 1.91698 9.63423 1.91699 11.9426V12.0574C1.91698 14.3658 1.91697 16.1748 2.10674 17.5863C2.30098 19.031 2.70632 20.1711 3.60113 21.0659C4.49594 21.9607 5.63596 22.366 7.0807 22.5603C8.49219 22.75 10.3012 22.75 12.6096 22.75H12.7244C15.0328 22.75 16.8418 22.75 18.2533 22.5603C19.698 22.366 20.838 21.9607 21.7329 21.0659C22.6277 20.1711 23.033 19.031 23.2272 17.5863C23.417 16.1748 23.417 14.3658 23.417 12.0574V12C23.417 11.5858 23.0812 11.25 22.667 11.25C22.2528 11.25 21.917 11.5858 21.917 12C21.917 14.3782 21.9154 16.0864 21.7406 17.3864C21.5687 18.6648 21.2419 19.4355 20.6722 20.0052C20.1025 20.5749 19.3318 20.9018 18.0534 21.0736C16.7534 21.2484 15.0452 21.25 12.667 21.25C10.2888 21.25 8.58055 21.2484 7.28057 21.0736C6.00217 20.9018 5.23145 20.5749 4.66179 20.0052C4.09213 19.4355 3.76524 18.6648 3.59336 17.3864C3.41859 16.0864 3.41699 14.3782 3.41699 12C3.41699 9.62178 3.41859 7.91356 3.59336 6.61358C3.76524 5.33517 4.09213 4.56445 4.66179 3.9948C5.23145 3.42514 6.00217 3.09825 7.28057 2.92637C8.58055 2.75159 10.2888 2.75 12.667 2.75C13.0812 2.75 13.417 2.41421 13.417 2C13.417 1.58579 13.0812 1.25 12.667 1.25Z" fill="black"/>
<path d="M13.1367 10.4697C12.8438 10.7626 12.8438 11.2374 13.1367 11.5303C13.4296 11.8232 13.9044 11.8232 14.1973 11.5303L21.917 3.81066V7.34375C21.917 7.75796 22.2528 8.09375 22.667 8.09375C23.0812 8.09375 23.417 7.75796 23.417 7.34375V2C23.417 1.58579 23.0812 1.25 22.667 1.25H17.3232C16.909 1.25 16.5732 1.58579 16.5732 2C16.5732 2.41421 16.909 2.75 17.3232 2.75H20.8563L13.1367 10.4697Z" fill="black"/>
</svg>
