<svg width="350" height="702" viewBox="0 0 350 702" fill="none" xmlns="http://www.w3.org/2000/svg">
<rect x="5" y="5" width="340" height="692" rx="48" stroke="black" stroke-width="10"/>
<g clip-path="url(#clip0_7_1266)">
<rect width="328" height="681" transform="translate(11 10)" fill="white"/>
<g clip-path="url(#clip1_7_1266)">
<path fill-rule="evenodd" clip-rule="evenodd" d="M281.076 25.9395H281.887C282.336 25.9395 282.699 26.303 282.699 26.7514V31.6227C282.699 32.0711 282.336 32.4346 281.887 32.4346H281.076C280.627 32.4346 280.264 32.0711 280.264 31.6227V26.7514C280.264 26.303 280.627 25.9395 281.076 25.9395Z" fill="#D1D1D6"/>
<path fill-rule="evenodd" clip-rule="evenodd" d="M277.422 27.5633H278.234C278.683 27.5633 279.046 27.9268 279.046 28.3751V31.6227C279.046 32.0711 278.683 32.4346 278.234 32.4346H277.422C276.974 32.4346 276.61 32.0711 276.61 31.6227V28.3751C276.61 27.9268 276.974 27.5633 277.422 27.5633Z" fill="#D1D1D6"/>
<path fill-rule="evenodd" clip-rule="evenodd" d="M273.769 28.7811H274.581C275.029 28.7811 275.393 29.1446 275.393 29.593V31.6227C275.393 32.0711 275.029 32.4346 274.581 32.4346H273.769C273.321 32.4346 272.957 32.0711 272.957 31.6227V29.593C272.957 29.1446 273.321 28.7811 273.769 28.7811Z" fill="#D1D1D6"/>
<path fill-rule="evenodd" clip-rule="evenodd" d="M284.729 24.3157H285.541C285.989 24.3157 286.353 24.6792 286.353 25.1276V31.6227C286.353 32.0711 285.989 32.4345 285.541 32.4345H284.729C284.28 32.4345 283.917 32.0711 283.917 31.6227V25.1276C283.917 24.6792 284.28 24.3157 284.729 24.3157Z" fill="#3C3C43" fill-opacity="0.18"/>
<path fill-rule="evenodd" clip-rule="evenodd" d="M281.076 25.9395H281.887C282.336 25.9395 282.699 26.303 282.699 26.7514V31.6227C282.699 32.0711 282.336 32.4346 281.887 32.4346H281.076C280.627 32.4346 280.264 32.0711 280.264 31.6227V26.7514C280.264 26.303 280.627 25.9395 281.076 25.9395Z" fill="black"/>
<path fill-rule="evenodd" clip-rule="evenodd" d="M277.422 27.5633H278.234C278.683 27.5633 279.046 27.9268 279.046 28.3751V31.6227C279.046 32.0711 278.683 32.4346 278.234 32.4346H277.422C276.974 32.4346 276.61 32.0711 276.61 31.6227V28.3751C276.61 27.9268 276.974 27.5633 277.422 27.5633Z" fill="black"/>
<path fill-rule="evenodd" clip-rule="evenodd" d="M273.769 28.7811H274.581C275.029 28.7811 275.393 29.1446 275.393 29.593V31.6227C275.393 32.0711 275.029 32.4346 274.581 32.4346H273.769C273.321 32.4346 272.957 32.0711 272.957 31.6227V29.593C272.957 29.1446 273.321 28.7811 273.769 28.7811Z" fill="black"/>
<path d="M297.421 29.9499C297.94 29.9499 298.445 30.0863 298.89 30.3464L299.07 30.4518C299.206 30.5318 299.23 30.7188 299.118 30.8304L297.58 32.3639C297.486 32.4581 297.333 32.4581 297.238 32.3639L295.711 30.8403C295.599 30.7291 295.622 30.543 295.758 30.4625L295.936 30.3567C296.384 30.0899 296.895 29.9499 297.421 29.9499Z" fill="black"/>
<path d="M297.422 27.1328C298.713 27.1328 299.953 27.5613 300.963 28.3548L301.106 28.4669C301.22 28.5563 301.23 28.7248 301.128 28.8269L300.21 29.7425C300.125 29.8271 299.99 29.8369 299.894 29.7653L299.782 29.6821C299.1 29.175 298.277 28.903 297.422 28.903C296.561 28.903 295.733 29.1784 295.049 29.6913L294.937 29.7753C294.84 29.8474 294.706 29.8379 294.62 29.753L293.703 28.8378C293.6 28.7359 293.61 28.5678 293.723 28.4782L293.865 28.366C294.878 27.5655 296.124 27.1328 297.422 27.1328Z" fill="black"/>
<path d="M297.421 24.3157C299.471 24.3157 301.431 25.0388 302.982 26.3641L303.115 26.4772C303.222 26.5686 303.228 26.7315 303.128 26.8309L302.213 27.7435C302.125 27.8319 301.983 27.8381 301.887 27.7577L301.774 27.663C300.552 26.6415 299.021 26.0859 297.421 26.0859C295.815 26.0859 294.279 26.6454 293.056 27.6732L292.943 27.7684C292.846 27.8491 292.704 27.8431 292.616 27.7545L291.701 26.8421C291.601 26.7429 291.607 26.5802 291.714 26.4887L291.846 26.3755C293.399 25.0431 295.365 24.3157 297.421 24.3157Z" fill="black"/>
<path d="M326.541 26.7514C326.989 26.7514 327.353 27.1149 327.353 27.5633V29.187C327.353 29.6354 326.989 29.9989 326.541 29.9989V26.7514Z" fill="#3C3C43" fill-opacity="0.6"/>
<path fill-rule="evenodd" clip-rule="evenodd" d="M309.491 23.5039H323.293C324.638 23.5039 325.729 24.5944 325.729 25.9395V30.8108C325.729 32.156 324.638 33.2465 323.293 33.2465H309.491C308.146 33.2465 307.056 32.156 307.056 30.8108V25.9395C307.056 24.5944 308.146 23.5039 309.491 23.5039ZM309.491 24.3158C308.595 24.3158 307.868 25.0427 307.868 25.9395V30.8108C307.868 31.7076 308.595 32.4346 309.491 32.4346H323.293C324.19 32.4346 324.917 31.7076 324.917 30.8108V25.9395C324.917 25.0427 324.19 24.3158 323.293 24.3158H309.491Z" fill="#3C3C43" fill-opacity="0.6"/>
<rect x="308.68" y="25.4445" width="15.4257" height="6.49505" rx="0.811881" fill="black"/>
<path d="M46.8594 31.2637C49.0418 31.2637 50.3381 29.5571 50.3381 26.6671C50.3381 25.579 50.1299 24.6632 49.7315 23.9556C49.1547 22.8555 48.1617 22.2609 46.907 22.2609C45.0398 22.2609 43.7197 23.5156 43.7197 25.2757C43.7197 26.9288 44.909 28.13 46.5443 28.13C47.5492 28.13 48.3639 27.6602 48.7682 26.8455H48.7861C48.7861 26.8455 48.8098 26.8455 48.8158 26.8455C48.8277 26.8455 48.8693 26.8455 48.8693 26.8455C48.8693 28.8078 48.126 29.9793 46.8713 29.9793C46.134 29.9793 45.5631 29.5749 45.3669 28.9268H43.8387C44.0943 30.3361 45.2896 31.2637 46.8594 31.2637ZM46.9129 26.9109C45.9258 26.9109 45.2242 26.2093 45.2242 25.2281C45.2242 24.2707 45.9615 23.5393 46.9189 23.5393C47.8763 23.5393 48.6136 24.2826 48.6136 25.2519C48.6136 26.2093 47.8941 26.9109 46.9129 26.9109Z" fill="black"/>
<path d="M52.8477 31.1805C53.4126 31.1805 53.7991 30.7761 53.7991 30.2409C53.7991 29.6998 53.4126 29.3014 52.8477 29.3014C52.2887 29.3014 51.8963 29.6998 51.8963 30.2409C51.8963 30.7761 52.2887 31.1805 52.8477 31.1805ZM52.8477 26.7207C53.4126 26.7207 53.7991 26.3223 53.7991 25.7871C53.7991 25.246 53.4126 24.8475 52.8477 24.8475C52.2887 24.8475 51.8963 25.246 51.8963 25.7871C51.8963 26.3223 52.2887 26.7207 52.8477 26.7207Z" fill="black"/>
<path d="M59.3652 31.0556H60.8339V29.456H61.9935V28.1597H60.8339V22.4749H58.6694C57.1531 24.7584 55.946 26.6671 55.173 28.0883V29.456H59.3652V31.0556ZM56.5941 28.1062C57.5931 26.346 58.4851 24.9367 59.3057 23.7237H59.389V28.1954H56.5941V28.1062Z" fill="black"/>
<path d="M65.2642 31.0556H66.7984V22.4749H65.2702L63.0284 24.0448V25.5195L65.1631 24.021H65.2642V31.0556Z" fill="black"/>
</g>
<path d="M34.2589 62.8546L26.9919 70.1216C26.76 70.3535 26.7711 70.7328 27.0162 70.9507L34.2589 77.3886" stroke="#5508E3" stroke-width="1.70987" stroke-linecap="round"/>
<path d="M43.5974 76.8546V66.4966H45.6605L48.1123 73.8306C48.3383 74.5136 48.5032 75.0247 48.6068 75.3638C48.7246 74.987 48.9083 74.4335 49.1579 73.7034L51.6379 66.4966H53.482V76.8546H52.1608V68.1853L49.1509 76.8546H47.9144L44.9186 68.0369V76.8546H43.5974ZM55.4745 79.7444L55.3332 78.5504C55.6111 78.6257 55.8537 78.6634 56.0609 78.6634C56.3436 78.6634 56.5697 78.6163 56.7392 78.5221C56.9088 78.4279 57.0478 78.296 57.1561 78.1264C57.2362 77.9993 57.3657 77.6837 57.5447 77.1797C57.5682 77.109 57.6059 77.0054 57.6577 76.8688L54.8103 69.3511H56.1811L57.7425 73.6964C57.9451 74.2475 58.1264 74.8268 58.2866 75.4345C58.4326 74.8504 58.6069 74.2804 58.8094 73.7246L60.4133 69.3511H61.6851L58.8306 76.9818C58.5244 77.8061 58.2866 78.3737 58.117 78.6846C57.8909 79.1038 57.6318 79.41 57.3398 79.6031C57.0478 79.801 56.6992 79.8999 56.2941 79.8999C56.0492 79.8999 55.776 79.8481 55.4745 79.7444ZM66.4896 73.5268L67.7826 73.4137C67.8438 73.9319 67.9852 74.3582 68.2065 74.6926C68.4326 75.0223 68.7812 75.2908 69.2522 75.4981C69.7233 75.7006 70.2532 75.8019 70.842 75.8019C71.3648 75.8019 71.8264 75.7242 72.2268 75.5687C72.6272 75.4133 72.9239 75.2013 73.1171 74.9328C73.3149 74.6596 73.4138 74.3629 73.4138 74.0426C73.4138 73.7176 73.3196 73.4349 73.1312 73.1947C72.9428 72.9498 72.6319 72.7449 72.1986 72.58C71.9206 72.4717 71.3059 72.3045 70.3545 72.0784C69.403 71.8476 68.7365 71.6309 68.3549 71.4283C67.8603 71.1693 67.4906 70.849 67.2456 70.4674C67.0054 70.0812 66.8853 69.6502 66.8853 69.1744C66.8853 68.6516 67.0337 68.1641 67.3304 67.7119C67.6272 67.255 68.0605 66.9088 68.6305 66.6733C69.2004 66.4377 69.834 66.32 70.5311 66.32C71.2989 66.32 71.9748 66.4448 72.5589 66.6945C73.1477 66.9394 73.5999 67.3021 73.9155 67.7825C74.2311 68.263 74.4006 68.807 74.4242 69.4147L73.11 69.5136C73.0393 68.8589 72.7991 68.3643 72.3893 68.0298C71.9842 67.6954 71.3837 67.5282 70.5876 67.5282C69.7586 67.5282 69.1533 67.6813 68.7718 67.9874C68.395 68.2889 68.2065 68.654 68.2065 69.0826C68.2065 69.4547 68.3408 69.7609 68.6093 70.0011C68.8731 70.2413 69.5608 70.4886 70.6724 70.743C71.7888 70.9926 72.5542 71.2117 72.9687 71.4001C73.5716 71.678 74.0167 72.0313 74.3041 72.4599C74.5914 72.8838 74.7351 73.3737 74.7351 73.9295C74.7351 74.4806 74.5773 75.0011 74.2617 75.491C73.9461 75.9762 73.4915 76.3553 72.898 76.6285C72.3092 76.897 71.6451 77.0313 70.9056 77.0313C69.9682 77.0313 69.1816 76.8947 68.5457 76.6215C67.9145 76.3483 67.4176 75.9385 67.0549 75.3921C66.6969 74.841 66.5085 74.2192 66.4896 73.5268ZM76.452 76.8546V66.4966H77.7238V72.4034L80.7337 69.3511H82.3799L79.5113 72.1349L82.6696 76.8546H81.1011L78.6211 73.0181L77.7238 73.8801V76.8546H76.452ZM83.6871 67.9592V66.4966H84.9588V67.9592H83.6871ZM83.6871 76.8546V69.3511H84.9588V76.8546H83.6871ZM86.8736 76.8546V66.4966H88.1454V76.8546H86.8736ZM90.0955 76.8546V66.4966H91.3673V76.8546H90.0955ZM92.8369 74.6149L94.0945 74.417C94.1652 74.9211 94.3607 75.3073 94.681 75.5758C95.006 75.8443 95.4582 75.9785 96.0376 75.9785C96.6216 75.9785 97.055 75.8608 97.3376 75.6252C97.6202 75.385 97.7615 75.1048 97.7615 74.7845C97.7615 74.4971 97.6367 74.271 97.3871 74.1062C97.2128 73.9931 96.7794 73.8495 96.087 73.6752C95.1544 73.4397 94.5067 73.2371 94.144 73.0675C93.786 72.8933 93.5128 72.6554 93.3244 72.3539C93.1407 72.0477 93.0488 71.711 93.0488 71.3436C93.0488 71.0091 93.1242 70.7006 93.2749 70.418C93.4304 70.1306 93.64 69.8928 93.9038 69.7044C94.1016 69.5583 94.3701 69.4359 94.7092 69.3369C95.0531 69.2333 95.4205 69.1815 95.8115 69.1815C96.4003 69.1815 96.916 69.2663 97.3588 69.4359C97.8063 69.6054 98.136 69.8362 98.348 70.1283C98.5599 70.4156 98.706 70.8019 98.786 71.287L97.5425 71.4566C97.486 71.0704 97.3211 70.7689 97.0479 70.5522C96.7794 70.3355 96.3979 70.2272 95.9033 70.2272C95.3192 70.2272 94.9024 70.3238 94.6527 70.5169C94.4031 70.71 94.2782 70.9361 94.2782 71.1952C94.2782 71.36 94.3301 71.5084 94.4337 71.6403C94.5373 71.7769 94.6998 71.89 94.9212 71.9794C95.0484 72.0266 95.4229 72.1349 96.0446 72.3045C96.9443 72.5447 97.5708 72.7425 97.924 72.898C98.282 73.0487 98.5623 73.2701 98.7648 73.5621C98.9674 73.8542 99.0687 74.2169 99.0687 74.6502C99.0687 75.0741 98.9438 75.4745 98.6942 75.8513C98.4492 76.2235 98.0936 76.5131 97.6273 76.7204C97.161 76.9229 96.6334 77.0242 96.0446 77.0242C95.0696 77.0242 94.3254 76.8217 93.8119 76.4166C93.3032 76.0115 92.9782 75.4109 92.8369 74.6149Z" fill="#5508E3"/>
<circle cx="266.235" cy="70.3894" r="8.83434" stroke="#5508E3" stroke-width="0.569957"/>
<path d="M302.485 71.365C302.485 69.6457 302.946 68.3009 303.869 67.3306C304.793 66.3555 305.984 65.868 307.445 65.868C308.401 65.868 309.263 66.0964 310.031 66.5534C310.798 67.0103 311.382 67.6485 311.783 68.4681C312.188 69.283 312.39 70.2086 312.39 71.2448C312.39 72.2953 312.179 73.235 311.755 74.064C311.331 74.893 310.73 75.5218 309.953 75.9505C309.176 76.3744 308.337 76.5864 307.438 76.5864C306.463 76.5864 305.591 76.3508 304.823 75.8798C304.056 75.4088 303.474 74.7658 303.078 73.9509C302.682 73.136 302.485 72.2741 302.485 71.365ZM303.898 71.3862C303.898 72.6344 304.232 73.6189 304.901 74.3395C305.575 75.0555 306.418 75.4135 307.43 75.4135C308.462 75.4135 309.31 75.0508 309.974 74.3254C310.643 73.6 310.977 72.5708 310.977 71.2378C310.977 70.3946 310.834 69.6598 310.546 69.0333C310.264 68.4022 309.847 67.9146 309.296 67.5708C308.749 67.2222 308.135 67.0479 307.452 67.0479C306.481 67.0479 305.645 67.3824 304.943 68.0512C304.246 68.7154 303.898 69.827 303.898 71.3862ZM314.107 76.4097V66.0517H315.478V71.1883L320.622 66.0517H322.48L318.135 70.2486L322.671 76.4097H320.862L317.174 71.1671L315.478 72.8205V76.4097H314.107Z" fill="#5508E3"/>
<circle cx="262.501" cy="70.6177" r="1.42489" fill="#5508E3"/>
<circle cx="267.061" cy="70.6177" r="1.42489" fill="#5508E3"/>
<circle cx="271.051" cy="70.6177" r="1.42489" fill="#5508E3"/>
<path d="M41.6745 313.045L37.735 296.544H41.1455L43.633 307.878L46.6496 296.544H50.6116L53.5043 308.07L56.0368 296.544H59.391L55.384 313.045H51.8497L48.563 300.709L45.2876 313.045H41.6745ZM59.92 306.899C59.92 305.849 60.1789 304.832 60.6967 303.849C61.2144 302.866 61.946 302.116 62.8915 301.598C63.8445 301.08 64.9063 300.821 66.0769 300.821C67.8853 300.821 69.3673 301.41 70.5229 302.588C71.6785 303.759 72.2563 305.241 72.2563 307.034C72.2563 308.843 71.671 310.343 70.5004 311.537C69.3373 312.722 67.8703 313.315 66.0994 313.315C65.0038 313.315 63.9571 313.067 62.9591 312.572C61.9686 312.077 61.2144 311.353 60.6967 310.4C60.1789 309.439 59.92 308.272 59.92 306.899ZM63.1617 307.068C63.1617 308.254 63.443 309.162 64.0058 309.792C64.5686 310.422 65.2627 310.737 66.0881 310.737C66.9136 310.737 67.6039 310.422 68.1592 309.792C68.722 309.162 69.0034 308.246 69.0034 307.046C69.0034 305.875 68.722 304.974 68.1592 304.344C67.6039 303.714 66.9136 303.399 66.0881 303.399C65.2627 303.399 64.5686 303.714 64.0058 304.344C63.443 304.974 63.1617 305.882 63.1617 307.068ZM77.7715 313.045H74.6087V301.091H77.5464V302.791C78.0492 301.988 78.4994 301.459 78.8971 301.204C79.3023 300.949 79.7601 300.821 80.2703 300.821C80.9907 300.821 81.6848 301.02 82.3526 301.418L81.3734 304.175C80.8406 303.83 80.3454 303.658 79.8876 303.658C79.4449 303.658 79.0697 303.781 78.7621 304.029C78.4544 304.269 78.2105 304.708 78.0304 305.346C77.8578 305.984 77.7715 307.319 77.7715 309.353V313.045ZM83.6133 313.045V296.544H86.7761V305.301L90.4792 301.091H94.3737L90.2879 305.458L94.6663 313.045H91.2559L88.2506 307.676L86.7761 309.218V313.045H83.6133ZM96.5573 299.47V296.544H99.7202V299.47H96.5573ZM96.5573 313.045V301.091H99.7202V313.045H96.5573ZM113.846 313.045H110.683V306.944C110.683 305.654 110.616 304.821 110.481 304.445C110.346 304.063 110.124 303.766 109.817 303.556C109.516 303.346 109.152 303.241 108.725 303.241C108.177 303.241 107.685 303.391 107.25 303.691C106.815 303.991 106.515 304.389 106.35 304.884C106.192 305.38 106.113 306.295 106.113 307.631V313.045H102.951V301.091H105.888V302.847C106.931 301.496 108.244 300.821 109.828 300.821C110.526 300.821 111.163 300.949 111.741 301.204C112.319 301.451 112.754 301.77 113.047 302.161C113.347 302.551 113.553 302.993 113.666 303.489C113.786 303.984 113.846 304.693 113.846 305.616V313.045ZM116.773 313.833L120.386 314.272C120.446 314.692 120.584 314.981 120.802 315.138C121.102 315.363 121.575 315.476 122.22 315.476C123.046 315.476 123.665 315.352 124.077 315.105C124.355 314.94 124.565 314.673 124.708 314.305C124.805 314.043 124.854 313.559 124.854 312.853V311.109C123.909 312.399 122.716 313.045 121.275 313.045C119.669 313.045 118.397 312.366 117.459 311.008C116.724 309.934 116.356 308.599 116.356 307C116.356 304.997 116.836 303.466 117.797 302.408C118.765 301.35 119.965 300.821 121.399 300.821C122.877 300.821 124.096 301.47 125.057 302.768V301.091H128.017V311.818C128.017 313.229 127.901 314.283 127.668 314.981C127.435 315.679 127.109 316.226 126.689 316.624C126.269 317.022 125.706 317.333 125 317.558C124.303 317.783 123.417 317.896 122.344 317.896C120.318 317.896 118.881 317.547 118.033 316.849C117.185 316.159 116.761 315.281 116.761 314.215C116.761 314.11 116.765 313.983 116.773 313.833ZM119.598 306.82C119.598 308.089 119.842 309.019 120.329 309.612C120.825 310.197 121.432 310.49 122.153 310.49C122.926 310.49 123.578 310.19 124.111 309.589C124.644 308.981 124.91 308.085 124.91 306.899C124.91 305.661 124.655 304.742 124.145 304.142C123.635 303.541 122.989 303.241 122.209 303.241C121.451 303.241 120.825 303.537 120.329 304.13C119.842 304.716 119.598 305.612 119.598 306.82ZM136.841 306.899C136.841 305.849 137.1 304.832 137.618 303.849C138.136 302.866 138.867 302.116 139.813 301.598C140.766 301.08 141.828 300.821 142.998 300.821C144.807 300.821 146.289 301.41 147.444 302.588C148.6 303.759 149.178 305.241 149.178 307.034C149.178 308.843 148.592 310.343 147.422 311.537C146.259 312.722 144.792 313.315 143.021 313.315C141.925 313.315 140.878 313.067 139.88 312.572C138.89 312.077 138.136 311.353 137.618 310.4C137.1 309.439 136.841 308.272 136.841 306.899ZM140.083 307.068C140.083 308.254 140.364 309.162 140.927 309.792C141.49 310.422 142.184 310.737 143.01 310.737C143.835 310.737 144.525 310.422 145.081 309.792C145.643 309.162 145.925 308.246 145.925 307.046C145.925 305.875 145.643 304.974 145.081 304.344C144.525 303.714 143.835 303.399 143.01 303.399C142.184 303.399 141.49 303.714 140.927 304.344C140.364 304.974 140.083 305.882 140.083 307.068ZM162.538 313.045H159.375V306.944C159.375 305.654 159.308 304.821 159.173 304.445C159.038 304.063 158.816 303.766 158.509 303.556C158.209 303.346 157.845 303.241 157.417 303.241C156.869 303.241 156.378 303.391 155.942 303.691C155.507 303.991 155.207 304.389 155.042 304.884C154.884 305.38 154.806 306.295 154.806 307.631V313.045H151.643V301.091H154.58V302.847C155.623 301.496 156.937 300.821 158.52 300.821C159.218 300.821 159.856 300.949 160.433 301.204C161.011 301.451 161.446 301.77 161.739 302.161C162.039 302.551 162.246 302.993 162.358 303.489C162.478 303.984 162.538 304.693 162.538 305.616V313.045ZM166.365 304.254V301.091H169.528V304.254H166.365ZM166.365 313.045V309.882H169.528V313.045H166.365Z" fill="#474746"/>
<path d="M116 410V430.599" stroke="#5508E3" stroke-width="2.37681" stroke-linecap="round"/>
<path d="M39.2558 116.354V100.616H44.355C46.2874 100.616 47.5469 100.695 48.1338 100.852C49.0356 101.089 49.7906 101.604 50.3989 102.398C51.0073 103.185 51.3114 104.205 51.3114 105.458C51.3114 106.424 51.1361 107.236 50.7854 107.895C50.4347 108.553 49.9874 109.072 49.4435 109.451C48.9067 109.823 48.3592 110.07 47.801 110.192C47.0424 110.342 45.9438 110.417 44.5053 110.417H42.4334V116.354H39.2558ZM42.4334 103.278V107.744H44.1725C45.425 107.744 46.2623 107.662 46.6846 107.497C47.1068 107.333 47.436 107.075 47.6722 106.724C47.9155 106.374 48.0372 105.966 48.0372 105.501C48.0372 104.928 47.869 104.456 47.5326 104.084C47.1963 103.711 46.7704 103.479 46.2551 103.386C45.8758 103.314 45.1136 103.278 43.9685 103.278H42.4334ZM53.8986 103.407V100.616H56.9152V103.407H53.8986ZM53.8986 116.354V104.953H56.9152V116.354H53.8986ZM69.9585 108.324L66.9848 108.861C66.8846 108.267 66.6556 107.819 66.2978 107.519C65.9471 107.218 65.489 107.068 64.9237 107.068C64.1722 107.068 63.571 107.329 63.1201 107.852C62.6764 108.367 62.4546 109.233 62.4546 110.45C62.4546 111.802 62.68 112.758 63.1309 113.316C63.5889 113.874 64.2008 114.153 64.9666 114.153C65.5391 114.153 66.0079 113.992 66.3729 113.67C66.7379 113.341 66.9956 112.779 67.1458 111.985L70.1088 112.489C69.801 113.849 69.2106 114.876 68.3375 115.57C67.4643 116.265 66.2942 116.612 64.827 116.612C63.1595 116.612 61.8283 116.086 60.8335 115.034C59.8459 113.981 59.3521 112.525 59.3521 110.664C59.3521 108.782 59.8495 107.319 60.8443 106.274C61.8391 105.222 63.1846 104.696 64.8807 104.696C66.2691 104.696 67.3713 104.996 68.1872 105.597C69.0102 106.191 69.6006 107.1 69.9585 108.324ZM72.1484 116.354V100.616H75.165V108.968L78.6969 104.953H82.4113L78.5144 109.118L82.6904 116.354H79.4377L76.5714 111.233L75.165 112.704V116.354H72.1484ZM91.0961 112.725L94.1019 113.23C93.7155 114.332 93.1036 115.173 92.2662 115.753C91.436 116.325 90.3947 116.612 89.1423 116.612C87.1598 116.612 85.6927 115.964 84.7408 114.669C83.9894 113.631 83.6136 112.321 83.6136 110.739C83.6136 108.85 84.1075 107.372 85.0951 106.306C86.0827 105.232 87.3316 104.696 88.8417 104.696C90.5378 104.696 91.8762 105.257 92.8567 106.381C93.8371 107.497 94.3059 109.211 94.263 111.523H86.7054C86.7269 112.418 86.9702 113.116 87.4354 113.616C87.9006 114.11 88.4803 114.357 89.1745 114.357C89.6468 114.357 90.044 114.228 90.3661 113.971C90.6881 113.713 90.9315 113.298 91.0961 112.725ZM91.2678 109.677C91.2464 108.804 91.0209 108.142 90.5915 107.691C90.1621 107.233 89.6397 107.004 89.0242 107.004C88.3658 107.004 87.8218 107.243 87.3924 107.723C86.963 108.202 86.7519 108.854 86.7591 109.677H91.2678ZM107.188 116.354H104.386V114.679C103.921 115.331 103.37 115.817 102.733 116.139C102.103 116.454 101.466 116.612 100.822 116.612C99.5125 116.612 98.3889 116.086 97.4513 115.034C96.5209 113.974 96.0557 112.5 96.0557 110.611C96.0557 108.678 96.5102 107.211 97.4191 106.209C98.328 105.2 99.4767 104.696 100.865 104.696C102.139 104.696 103.241 105.225 104.172 106.284V100.616H107.188V116.354ZM99.1367 110.407C99.1367 111.623 99.3049 112.504 99.6413 113.048C100.128 113.835 100.808 114.228 101.681 114.228C102.375 114.228 102.966 113.935 103.452 113.348C103.939 112.754 104.182 111.87 104.182 110.697C104.182 109.387 103.946 108.446 103.474 107.873C103.001 107.293 102.397 107.004 101.66 107.004C100.944 107.004 100.343 107.29 99.856 107.862C99.3765 108.428 99.1367 109.276 99.1367 110.407ZM123.795 116.354V114.647C123.38 115.255 122.833 115.735 122.153 116.086C121.48 116.436 120.768 116.612 120.017 116.612C119.251 116.612 118.564 116.443 117.956 116.107C117.347 115.771 116.907 115.298 116.635 114.69C116.363 114.082 116.227 113.241 116.227 112.167V104.953H119.244V110.192C119.244 111.795 119.297 112.779 119.405 113.144C119.519 113.502 119.723 113.788 120.017 114.003C120.31 114.211 120.682 114.314 121.133 114.314C121.648 114.314 122.11 114.175 122.518 113.896C122.926 113.609 123.205 113.259 123.355 112.844C123.506 112.421 123.581 111.394 123.581 109.763V104.953H126.597V116.354H123.795ZM129.646 104.953H132.459V106.628C132.824 106.055 133.318 105.59 133.94 105.232C134.563 104.874 135.254 104.696 136.012 104.696C137.336 104.696 138.46 105.214 139.383 106.252C140.306 107.29 140.768 108.736 140.768 110.589C140.768 112.493 140.303 113.974 139.372 115.034C138.442 116.086 137.315 116.612 135.991 116.612C135.361 116.612 134.788 116.486 134.273 116.236C133.765 115.985 133.228 115.556 132.663 114.948V120.691H129.646V104.953ZM132.631 110.46C132.631 111.741 132.885 112.69 133.393 113.305C133.901 113.914 134.52 114.218 135.25 114.218C135.951 114.218 136.535 113.939 137 113.38C137.465 112.815 137.698 111.892 137.698 110.611C137.698 109.415 137.458 108.528 136.978 107.948C136.499 107.369 135.905 107.079 135.196 107.079C134.459 107.079 133.847 107.365 133.361 107.938C132.874 108.503 132.631 109.344 132.631 110.46ZM143.752 107.97V104.953H146.769V107.97H143.752ZM143.752 116.354V113.337H146.769V116.354H143.752Z" fill="#474746"/>
<path d="M53.3281 159.813C53.3281 160.514 53.0803 161.112 52.5847 161.608C52.0948 162.098 51.5023 162.343 50.8073 162.343C50.1066 162.343 49.5084 162.095 49.0128 161.599C48.5229 161.104 48.2779 160.508 48.2779 159.813C48.2779 159.118 48.5229 158.526 49.0128 158.036C49.5084 157.54 50.1066 157.292 50.8073 157.292C51.5023 157.292 52.0948 157.537 52.5847 158.027C53.0803 158.517 53.3281 159.113 53.3281 159.813ZM63.9071 167.225H81.4076V149.724H63.9071V167.225ZM87.6627 166V153.473H96.7206V154.951H89.3205V158.788H96.2506V160.258H89.3205V164.522H97.0111V166H87.6627ZM99.25 166V153.473H101.745L104.71 162.343C104.984 163.169 105.183 163.787 105.309 164.197C105.451 163.741 105.673 163.072 105.975 162.189L108.974 153.473H111.205V166H109.607V155.515L105.966 166H104.471L100.848 155.336V166H99.25ZM113.879 166V153.473H118.605C119.437 153.473 120.072 153.513 120.51 153.592C121.126 153.695 121.641 153.891 122.057 154.182C122.473 154.467 122.806 154.868 123.057 155.387C123.313 155.905 123.441 156.475 123.441 157.096C123.441 158.161 123.102 159.064 122.425 159.805C121.747 160.54 120.522 160.907 118.75 160.907H115.537V166H113.879ZM115.537 159.429H118.776C119.847 159.429 120.607 159.229 121.057 158.831C121.507 158.432 121.732 157.871 121.732 157.147C121.732 156.623 121.598 156.176 121.331 155.806C121.069 155.43 120.721 155.182 120.288 155.062C120.009 154.988 119.494 154.951 118.742 154.951H115.537V159.429ZM122.877 166L127.688 153.473H129.474L134.601 166H132.713L131.252 162.206H126.013L124.638 166H122.877ZM126.492 160.856H130.739L129.432 157.386C129.033 156.333 128.737 155.467 128.543 154.789C128.383 155.592 128.158 156.39 127.868 157.181L126.492 160.856ZM137.814 166V154.951H133.687V153.473H143.617V154.951H139.472V166H137.814ZM145.377 166V153.473H147.035V158.617H153.546V153.473H155.204V166H153.546V160.095H147.035V166H145.377ZM161.502 166V160.693L156.674 153.473H158.69L161.16 157.25C161.616 157.956 162.04 158.663 162.433 159.369C162.809 158.714 163.265 157.976 163.8 157.156L166.227 153.473H168.158L163.159 160.693V166H161.502ZM53.3281 181.813C53.3281 182.514 53.0803 183.112 52.5847 183.608C52.0948 184.098 51.5023 184.343 50.8073 184.343C50.1066 184.343 49.5084 184.095 49.0128 183.599C48.5229 183.104 48.2779 182.508 48.2779 181.813C48.2779 181.118 48.5229 180.526 49.0128 180.036C49.5084 179.54 50.1066 179.292 50.8073 179.292C51.5023 179.292 52.0948 179.537 52.5847 180.027C53.0803 180.517 53.3281 181.113 53.3281 181.813ZM63.9071 189.225H81.4076V171.724H63.9071V189.225ZM87.6285 188V175.473H92.354C93.1857 175.473 93.8209 175.513 94.2596 175.592C94.8748 175.695 95.3904 175.891 95.8063 176.182C96.2221 176.467 96.5554 176.868 96.806 177.387C97.0624 177.905 97.1906 178.475 97.1906 179.096C97.1906 180.161 96.8516 181.064 96.1737 181.805C95.4958 182.54 94.271 182.907 92.4993 182.907H89.2863V188H87.6285ZM89.2863 181.429H92.5249C93.5959 181.429 94.3564 181.229 94.8065 180.831C95.2565 180.432 95.4815 179.871 95.4815 179.147C95.4815 178.623 95.3477 178.176 95.0799 177.806C94.8179 177.43 94.4704 177.182 94.0374 177.062C93.7583 176.988 93.2427 176.951 92.4907 176.951H89.2863V181.429ZM99.3269 188V175.473H104.881C105.998 175.473 106.847 175.587 107.428 175.815C108.009 176.037 108.473 176.433 108.821 177.002C109.168 177.572 109.342 178.202 109.342 178.891C109.342 179.78 109.054 180.529 108.479 181.138C107.903 181.748 107.015 182.135 105.813 182.3C106.251 182.511 106.585 182.719 106.812 182.924C107.297 183.369 107.755 183.924 108.188 184.59L110.367 188H108.282L106.624 185.394C106.14 184.642 105.741 184.066 105.428 183.668C105.115 183.269 104.833 182.99 104.582 182.83C104.337 182.671 104.087 182.56 103.83 182.497C103.642 182.457 103.335 182.437 102.907 182.437H100.985V188H99.3269ZM100.985 181.001H104.548C105.306 181.001 105.898 180.925 106.325 180.771C106.753 180.611 107.077 180.361 107.3 180.019C107.522 179.671 107.633 179.295 107.633 178.891C107.633 178.298 107.416 177.811 106.983 177.43C106.556 177.048 105.878 176.857 104.95 176.857H100.985V181.001ZM111.444 181.899C111.444 179.819 112.002 178.193 113.119 177.019C114.235 175.84 115.677 175.251 117.443 175.251C118.599 175.251 119.642 175.527 120.57 176.079C121.499 176.632 122.205 177.404 122.689 178.395C123.179 179.381 123.424 180.5 123.424 181.753C123.424 183.024 123.168 184.16 122.655 185.163C122.143 186.166 121.416 186.926 120.476 187.445C119.536 187.957 118.522 188.214 117.434 188.214C116.255 188.214 115.201 187.929 114.272 187.359C113.344 186.789 112.64 186.012 112.162 185.026C111.683 184.041 111.444 182.998 111.444 181.899ZM113.153 181.924C113.153 183.434 113.557 184.625 114.366 185.496C115.181 186.362 116.201 186.795 117.426 186.795C118.673 186.795 119.699 186.356 120.502 185.479C121.311 184.602 121.715 183.357 121.715 181.745C121.715 180.725 121.542 179.836 121.194 179.079C120.852 178.315 120.348 177.726 119.682 177.31C119.021 176.888 118.277 176.678 117.451 176.678C116.278 176.678 115.266 177.082 114.418 177.891C113.575 178.694 113.153 180.039 113.153 181.924ZM125.501 188V175.473H130.201C131.158 175.473 131.924 175.601 132.499 175.857C133.08 176.108 133.533 176.498 133.858 177.028C134.188 177.552 134.354 178.102 134.354 178.677C134.354 179.213 134.208 179.717 133.918 180.19C133.627 180.663 133.189 181.044 132.602 181.335C133.36 181.557 133.941 181.936 134.345 182.471C134.755 183.007 134.96 183.639 134.96 184.368C134.96 184.955 134.835 185.502 134.584 186.009C134.339 186.51 134.035 186.898 133.67 187.171C133.305 187.445 132.847 187.652 132.294 187.795C131.747 187.932 131.075 188 130.278 188H125.501ZM127.159 180.737H129.867C130.602 180.737 131.129 180.688 131.448 180.591C131.87 180.466 132.186 180.258 132.397 179.968C132.613 179.677 132.721 179.312 132.721 178.874C132.721 178.458 132.622 178.093 132.422 177.78C132.223 177.461 131.938 177.244 131.568 177.131C131.198 177.011 130.562 176.951 129.662 176.951H127.159V180.737ZM127.159 186.522H130.278C130.813 186.522 131.189 186.502 131.406 186.462C131.787 186.394 132.106 186.28 132.363 186.12C132.619 185.961 132.83 185.73 132.995 185.428C133.16 185.12 133.243 184.767 133.243 184.368C133.243 183.901 133.123 183.497 132.884 183.155C132.645 182.807 132.311 182.565 131.884 182.429C131.462 182.286 130.853 182.215 130.055 182.215H127.159V186.522ZM137.174 188V175.473H138.831V186.522H145.001V188H137.174ZM147.018 188V175.473H156.075V176.951H148.675V180.788H155.605V182.258H148.675V186.522H156.366V188H147.018ZM158.605 188V175.473H161.1L164.065 184.343C164.339 185.169 164.538 185.787 164.663 186.197C164.806 185.741 165.028 185.072 165.33 184.189L168.329 175.473H170.56V188H168.962V177.515L165.321 188H163.826L160.203 177.336V188H158.605ZM177.541 183.975L179.105 183.838C179.179 184.465 179.35 184.981 179.617 185.385C179.891 185.784 180.312 186.109 180.882 186.359C181.452 186.604 182.093 186.727 182.805 186.727C183.437 186.727 183.995 186.633 184.48 186.445C184.964 186.257 185.323 186 185.556 185.676C185.796 185.345 185.915 184.986 185.915 184.599C185.915 184.206 185.801 183.864 185.573 183.574C185.346 183.277 184.97 183.03 184.445 182.83C184.109 182.699 183.366 182.497 182.215 182.223C181.064 181.944 180.258 181.682 179.797 181.437C179.199 181.124 178.752 180.737 178.455 180.275C178.165 179.808 178.02 179.287 178.02 178.711C178.02 178.079 178.199 177.489 178.558 176.943C178.917 176.39 179.441 175.971 180.13 175.686C180.819 175.402 181.586 175.259 182.429 175.259C183.357 175.259 184.175 175.41 184.881 175.712C185.593 176.008 186.14 176.447 186.522 177.028C186.904 177.609 187.109 178.267 187.137 179.002L185.548 179.122C185.462 178.33 185.172 177.732 184.676 177.327C184.186 176.923 183.46 176.72 182.497 176.72C181.495 176.72 180.763 176.905 180.301 177.276C179.845 177.64 179.617 178.082 179.617 178.6C179.617 179.05 179.78 179.421 180.105 179.711C180.424 180.002 181.255 180.301 182.6 180.608C183.95 180.91 184.876 181.175 185.377 181.403C186.106 181.739 186.644 182.166 186.992 182.685C187.339 183.198 187.513 183.79 187.513 184.462C187.513 185.129 187.322 185.758 186.941 186.351C186.559 186.938 186.009 187.396 185.291 187.727C184.579 188.051 183.776 188.214 182.882 188.214C181.748 188.214 180.797 188.048 180.028 187.718C179.264 187.388 178.663 186.892 178.225 186.231C177.792 185.565 177.564 184.813 177.541 183.975ZM189.274 181.899C189.274 179.819 189.832 178.193 190.948 177.019C192.065 175.84 193.506 175.251 195.272 175.251C196.429 175.251 197.471 175.527 198.4 176.079C199.328 176.632 200.035 177.404 200.519 178.395C201.009 179.381 201.254 180.5 201.254 181.753C201.254 183.024 200.998 184.16 200.485 185.163C199.972 186.166 199.246 186.926 198.306 187.445C197.366 187.957 196.352 188.214 195.264 188.214C194.084 188.214 193.031 187.929 192.102 187.359C191.173 186.789 190.47 186.012 189.991 185.026C189.513 184.041 189.274 182.998 189.274 181.899ZM190.983 181.924C190.983 183.434 191.387 184.625 192.196 185.496C193.011 186.362 194.03 186.795 195.255 186.795C196.503 186.795 197.528 186.356 198.331 185.479C199.14 184.602 199.545 183.357 199.545 181.745C199.545 180.725 199.371 179.836 199.024 179.079C198.682 178.315 198.178 177.726 197.511 177.31C196.85 176.888 196.107 176.678 195.281 176.678C194.107 176.678 193.096 177.082 192.247 177.891C191.404 178.694 190.983 180.039 190.983 181.924ZM203.33 188V175.473H204.988V186.522H211.158V188H203.33ZM215.422 188L210.568 175.473H212.363L215.618 184.573C215.88 185.303 216.1 185.986 216.276 186.624C216.47 185.941 216.695 185.257 216.951 184.573L220.335 175.473H222.027L217.122 188H215.422ZM223.796 188V175.473H225.454V188H223.796ZM228.368 188V175.473H230.068L236.648 185.308V175.473H238.237V188H236.537L229.957 178.156V188H228.368ZM246.894 183.087V181.617L252.2 181.608V186.257C251.386 186.906 250.545 187.396 249.679 187.727C248.814 188.051 247.925 188.214 247.013 188.214C245.783 188.214 244.663 187.952 243.655 187.427C242.652 186.898 241.895 186.134 241.382 185.137C240.869 184.14 240.613 183.027 240.613 181.796C240.613 180.577 240.867 179.441 241.374 178.387C241.886 177.327 242.621 176.541 243.578 176.028C244.535 175.515 245.638 175.259 246.885 175.259C247.791 175.259 248.608 175.407 249.338 175.703C250.073 175.994 250.648 176.401 251.064 176.925C251.48 177.45 251.796 178.133 252.012 178.976L250.517 179.386C250.329 178.748 250.095 178.247 249.816 177.882C249.537 177.518 249.138 177.227 248.62 177.011C248.101 176.789 247.526 176.678 246.894 176.678C246.136 176.678 245.481 176.794 244.928 177.028C244.376 177.256 243.929 177.558 243.587 177.934C243.251 178.31 242.989 178.723 242.801 179.173C242.482 179.948 242.322 180.788 242.322 181.694C242.322 182.81 242.513 183.744 242.895 184.496C243.282 185.248 243.843 185.807 244.578 186.171C245.313 186.536 246.093 186.718 246.919 186.718C247.637 186.718 248.338 186.581 249.021 186.308C249.705 186.029 250.224 185.733 250.577 185.419V183.087H246.894ZM53.3281 202.813C53.3281 203.514 53.0803 204.112 52.5847 204.608C52.0948 205.098 51.5023 205.343 50.8073 205.343C50.1066 205.343 49.5084 205.095 49.0128 204.599C48.5229 204.104 48.2779 203.508 48.2779 202.813C48.2779 202.118 48.5229 201.526 49.0128 201.036C49.5084 200.54 50.1066 200.292 50.8073 200.292C51.5023 200.292 52.0948 200.537 52.5847 201.027C53.0803 201.517 53.3281 202.113 53.3281 202.813ZM63.9071 210.225H81.4076V192.724H63.9071V210.225ZM85.2786 209L90.0895 196.473H91.8755L97.0026 209H95.1141L93.6529 205.206H88.4147L87.0389 209H85.2786ZM88.8932 203.856H93.1402L91.8327 200.386C91.434 199.333 91.1377 198.467 90.944 197.789C90.7845 198.592 90.5595 199.39 90.269 200.181L88.8932 203.856ZM98.31 209V196.473H100.01L106.59 206.308V196.473H108.18V209H106.479L99.8994 199.156V209H98.31ZM116.836 204.087V202.617L122.143 202.608V207.257C121.328 207.906 120.488 208.396 119.622 208.727C118.756 209.051 117.867 209.214 116.956 209.214C115.725 209.214 114.606 208.952 113.597 208.427C112.595 207.898 111.837 207.134 111.324 206.137C110.812 205.14 110.555 204.027 110.555 202.796C110.555 201.577 110.809 200.441 111.316 199.387C111.828 198.327 112.563 197.541 113.52 197.028C114.477 196.515 115.58 196.259 116.827 196.259C117.733 196.259 118.551 196.407 119.28 196.703C120.015 196.994 120.59 197.401 121.006 197.925C121.422 198.45 121.738 199.133 121.955 199.976L120.459 200.386C120.271 199.748 120.038 199.247 119.758 198.882C119.479 198.518 119.081 198.227 118.562 198.011C118.044 197.789 117.468 197.678 116.836 197.678C116.078 197.678 115.423 197.794 114.871 198.028C114.318 198.256 113.871 198.558 113.529 198.934C113.193 199.31 112.931 199.723 112.743 200.173C112.424 200.948 112.264 201.788 112.264 202.694C112.264 203.81 112.455 204.744 112.837 205.496C113.224 206.248 113.785 206.807 114.52 207.171C115.255 207.536 116.036 207.718 116.862 207.718C117.579 207.718 118.28 207.581 118.964 207.308C119.647 207.029 120.166 206.733 120.519 206.419V204.087H116.836ZM132.815 196.473H134.473V203.711C134.473 204.97 134.331 205.969 134.046 206.71C133.761 207.45 133.246 208.054 132.499 208.521C131.759 208.983 130.785 209.214 129.577 209.214C128.403 209.214 127.443 209.011 126.697 208.607C125.951 208.202 125.418 207.619 125.099 206.855C124.78 206.086 124.621 205.038 124.621 203.711V196.473H126.278V203.702C126.278 204.79 126.378 205.593 126.577 206.112C126.783 206.624 127.13 207.02 127.62 207.3C128.116 207.579 128.719 207.718 129.432 207.718C130.651 207.718 131.519 207.442 132.038 206.889C132.556 206.337 132.815 205.274 132.815 203.702V196.473ZM137.174 209V196.473H138.831V207.522H145.001V209H137.174ZM145.608 209L150.419 196.473H152.204L157.332 209H155.443L153.982 205.206H148.744L147.368 209H145.608ZM149.222 203.856H153.469L152.162 200.386C151.763 199.333 151.467 198.467 151.273 197.789C151.114 198.592 150.889 199.39 150.598 200.181L149.222 203.856ZM158.682 209V196.473H164.236C165.353 196.473 166.202 196.587 166.783 196.815C167.364 197.037 167.828 197.433 168.175 198.002C168.523 198.572 168.697 199.202 168.697 199.891C168.697 200.78 168.409 201.529 167.834 202.138C167.258 202.748 166.37 203.135 165.168 203.3C165.606 203.511 165.939 203.719 166.167 203.924C166.652 204.369 167.11 204.924 167.543 205.59L169.722 209H167.637L165.979 206.394C165.495 205.642 165.096 205.066 164.783 204.668C164.47 204.269 164.188 203.99 163.937 203.83C163.692 203.671 163.441 203.56 163.185 203.497C162.997 203.457 162.689 203.437 162.262 203.437H160.34V209H158.682ZM160.34 202.001H163.903C164.661 202.001 165.253 201.925 165.68 201.771C166.108 201.611 166.432 201.361 166.654 201.019C166.877 200.671 166.988 200.295 166.988 199.891C166.988 199.298 166.771 198.811 166.338 198.43C165.911 198.048 165.233 197.857 164.304 197.857H160.34V202.001ZM53.3281 224.813C53.3281 225.514 53.0803 226.112 52.5847 226.608C52.0948 227.098 51.5023 227.343 50.8073 227.343C50.1066 227.343 49.5084 227.095 49.0128 226.599C48.5229 226.104 48.2779 225.508 48.2779 224.813C48.2779 224.118 48.5229 223.526 49.0128 223.036C49.5084 222.54 50.1066 222.292 50.8073 222.292C51.5023 222.292 52.0948 222.537 52.5847 223.027C53.0803 223.517 53.3281 224.113 53.3281 224.813ZM63.9071 232.225H81.4076V214.724H63.9071V232.225ZM87.6541 231V218.473H93.2085C94.3251 218.473 95.1739 218.587 95.755 218.815C96.3361 219.037 96.8003 219.433 97.1478 220.002C97.4954 220.572 97.6691 221.202 97.6691 221.891C97.6691 222.78 97.3814 223.529 96.806 224.138C96.2307 224.748 95.342 225.135 94.1399 225.3C94.5786 225.511 94.9119 225.719 95.1397 225.924C95.624 226.369 96.0825 226.924 96.5155 227.59L98.6945 231H96.6095L94.9517 228.394C94.4675 227.642 94.0687 227.066 93.7554 226.668C93.4421 226.269 93.1601 225.99 92.9094 225.83C92.6645 225.671 92.4138 225.56 92.1575 225.497C91.9695 225.457 91.6618 225.437 91.2346 225.437H89.3119V231H87.6541ZM89.3119 224.001H92.8753C93.6329 224.001 94.2254 223.925 94.6527 223.771C95.0799 223.611 95.4046 223.361 95.6268 223.019C95.849 222.671 95.9601 222.295 95.9601 221.891C95.9601 221.298 95.7436 220.811 95.3106 220.43C94.8834 220.048 94.2055 219.857 93.2769 219.857H89.3119V224.001ZM100.31 231V218.473H109.367V219.951H101.967V223.788H108.897V225.258H101.967V229.522H109.658V231H100.31ZM111.384 226.975L112.948 226.838C113.022 227.465 113.193 227.981 113.461 228.385C113.734 228.784 114.156 229.109 114.725 229.359C115.295 229.604 115.936 229.727 116.648 229.727C117.28 229.727 117.839 229.633 118.323 229.445C118.807 229.257 119.166 229 119.4 228.676C119.639 228.345 119.758 227.986 119.758 227.599C119.758 227.206 119.644 226.864 119.417 226.574C119.189 226.277 118.813 226.03 118.289 225.83C117.953 225.699 117.209 225.497 116.058 225.223C114.908 224.944 114.102 224.682 113.64 224.437C113.042 224.124 112.595 223.737 112.298 223.275C112.008 222.808 111.863 222.287 111.863 221.711C111.863 221.079 112.042 220.489 112.401 219.943C112.76 219.39 113.284 218.971 113.973 218.686C114.663 218.402 115.429 218.259 116.272 218.259C117.201 218.259 118.018 218.41 118.724 218.712C119.437 219.008 119.983 219.447 120.365 220.028C120.747 220.609 120.952 221.267 120.98 222.002L119.391 222.122C119.306 221.33 119.015 220.732 118.519 220.327C118.029 219.923 117.303 219.72 116.34 219.72C115.338 219.72 114.606 219.905 114.144 220.276C113.688 220.64 113.461 221.082 113.461 221.6C113.461 222.05 113.623 222.421 113.948 222.711C114.267 223.002 115.098 223.301 116.443 223.608C117.793 223.91 118.719 224.175 119.22 224.403C119.949 224.739 120.488 225.166 120.835 225.685C121.183 226.198 121.356 226.79 121.356 227.462C121.356 228.129 121.166 228.758 120.784 229.351C120.402 229.938 119.852 230.396 119.135 230.727C118.423 231.051 117.619 231.214 116.725 231.214C115.591 231.214 114.64 231.048 113.871 230.718C113.107 230.388 112.506 229.892 112.068 229.231C111.635 228.565 111.407 227.813 111.384 226.975ZM131.841 218.473H133.499V225.711C133.499 226.97 133.357 227.969 133.072 228.71C132.787 229.45 132.271 230.054 131.525 230.521C130.785 230.983 129.81 231.214 128.603 231.214C127.429 231.214 126.469 231.011 125.723 230.607C124.977 230.202 124.444 229.619 124.125 228.855C123.806 228.086 123.646 227.038 123.646 225.711V218.473H125.304V225.702C125.304 226.79 125.404 227.593 125.603 228.112C125.808 228.624 126.156 229.02 126.646 229.3C127.141 229.579 127.745 229.718 128.457 229.718C129.677 229.718 130.545 229.442 131.064 228.889C131.582 228.337 131.841 227.274 131.841 225.702V218.473ZM136.199 231V218.473H137.857V229.522H144.027V231H136.199ZM147.898 231V219.951H143.77V218.473H153.7V219.951H149.555V231H147.898ZM159.955 231V218.473H164.27C165.244 218.473 165.988 218.533 166.501 218.652C167.218 218.817 167.831 219.116 168.338 219.549C168.999 220.108 169.491 220.823 169.816 221.694C170.147 222.56 170.312 223.551 170.312 224.668C170.312 225.619 170.201 226.463 169.978 227.197C169.756 227.932 169.471 228.542 169.124 229.026C168.776 229.505 168.395 229.883 167.979 230.163C167.569 230.436 167.07 230.644 166.484 230.786C165.902 230.929 165.233 231 164.475 231H159.955ZM161.613 229.522H164.287C165.113 229.522 165.76 229.445 166.227 229.291C166.7 229.137 167.076 228.921 167.355 228.642C167.748 228.248 168.053 227.721 168.269 227.061C168.492 226.394 168.603 225.588 168.603 224.642C168.603 223.332 168.386 222.327 167.953 221.626C167.526 220.92 167.005 220.447 166.39 220.207C165.945 220.037 165.23 219.951 164.245 219.951H161.613V229.522ZM172.627 231V218.473H178.182C179.298 218.473 180.147 218.587 180.728 218.815C181.309 219.037 181.774 219.433 182.121 220.002C182.469 220.572 182.642 221.202 182.642 221.891C182.642 222.78 182.355 223.529 181.779 224.138C181.204 224.748 180.315 225.135 179.113 225.3C179.552 225.511 179.885 225.719 180.113 225.924C180.597 226.369 181.056 226.924 181.489 227.59L183.668 231H181.583L179.925 228.394C179.441 227.642 179.042 227.066 178.729 226.668C178.415 226.269 178.133 225.99 177.883 225.83C177.638 225.671 177.387 225.56 177.131 225.497C176.943 225.457 176.635 225.437 176.208 225.437H174.285V231H172.627ZM174.285 224.001H177.849C178.606 224.001 179.199 223.925 179.626 223.771C180.053 223.611 180.378 223.361 180.6 223.019C180.822 222.671 180.933 222.295 180.933 221.891C180.933 221.298 180.717 220.811 180.284 220.43C179.857 220.048 179.179 219.857 178.25 219.857H174.285V224.001ZM185.531 231V218.473H187.189V231H185.531ZM193.7 231L188.846 218.473H190.641L193.896 227.573C194.159 228.303 194.378 228.986 194.554 229.624C194.748 228.941 194.973 228.257 195.23 227.573L198.613 218.473H200.305L195.4 231H193.7ZM201.826 231V218.473H210.884V219.951H203.484V223.788H210.414V225.258H203.484V229.522H211.175V231H201.826ZM213.448 231V218.473H215.148L221.728 228.308V218.473H223.318V231H221.617L215.037 221.156V231H213.448Z" fill="#2C2C2C"/>
<circle cx="75.0607" cy="220.272" r="1.9722" stroke="#2C2C2C" stroke-width="0.136014"/>
<path d="M62.9774 350.385L64.4611 350.256C64.5314 350.85 64.6935 351.339 64.9476 351.723C65.2071 352.102 65.607 352.41 66.1476 352.647C66.6881 352.88 67.2962 352.996 67.9719 352.996C68.5718 352.996 69.1016 352.907 69.561 352.729C70.0205 352.55 70.361 352.307 70.5826 351.999C70.8096 351.685 70.9231 351.345 70.9231 350.977C70.9231 350.604 70.815 350.28 70.5988 350.004C70.3826 349.723 70.0259 349.488 69.5286 349.299C69.2097 349.175 68.5043 348.983 67.4124 348.723C66.3205 348.458 65.5557 348.21 65.1179 347.977C64.5503 347.68 64.126 347.312 63.8449 346.875C63.5693 346.431 63.4314 345.937 63.4314 345.391C63.4314 344.791 63.6017 344.231 63.9422 343.713C64.2827 343.188 64.78 342.791 65.4341 342.521C66.0881 342.25 66.8151 342.115 67.6151 342.115C68.4962 342.115 69.2718 342.259 69.9421 342.545C70.6177 342.826 71.1366 343.242 71.4988 343.794C71.8609 344.345 72.0555 344.969 72.0826 345.667L70.5745 345.78C70.4934 345.029 70.2177 344.461 69.7475 344.077C69.2826 343.694 68.5935 343.502 67.68 343.502C66.7286 343.502 66.0341 343.677 65.5962 344.029C65.1638 344.375 64.9476 344.794 64.9476 345.286C64.9476 345.713 65.1016 346.064 65.4097 346.34C65.7124 346.615 66.5016 346.899 67.7773 347.191C69.0583 347.477 69.9367 347.729 70.4123 347.945C71.1042 348.264 71.615 348.669 71.9447 349.161C72.2745 349.648 72.4393 350.21 72.4393 350.848C72.4393 351.48 72.2582 352.077 71.8961 352.639C71.5339 353.196 71.0123 353.631 70.3313 353.945C69.6556 354.253 68.8934 354.407 68.0448 354.407C66.9692 354.407 66.0665 354.25 65.3368 353.937C64.6125 353.623 64.0422 353.153 63.626 352.526C63.2152 351.893 62.999 351.18 62.9774 350.385ZM74.4095 354.204V342.318H75.869V349.096L79.3229 345.594H81.2121L77.9203 348.788L81.5445 354.204H79.7445L76.8987 349.802L75.869 350.791V354.204H74.4095ZM82.712 343.996V342.318H84.1715V343.996H82.712ZM82.712 354.204V345.594H84.1715V354.204H82.712ZM86.3687 354.204V342.318H87.8281V354.204H86.3687ZM90.0659 354.204V342.318H91.5253V354.204H90.0659ZM96.3739 354.204L100.939 342.318H102.633L107.498 354.204H105.706L104.32 350.604H99.3495L98.0441 354.204H96.3739ZM99.8035 349.323H103.833L102.593 346.031C102.214 345.031 101.933 344.21 101.749 343.567C101.598 344.329 101.385 345.086 101.109 345.837L99.8035 349.323ZM62.9774 374.385L64.4611 374.256C64.5314 374.85 64.6935 375.339 64.9476 375.723C65.2071 376.102 65.607 376.41 66.1476 376.647C66.6881 376.88 67.2962 376.996 67.9719 376.996C68.5718 376.996 69.1016 376.907 69.561 376.729C70.0205 376.55 70.361 376.307 70.5826 375.999C70.8096 375.685 70.9231 375.345 70.9231 374.977C70.9231 374.604 70.815 374.28 70.5988 374.004C70.3826 373.723 70.0259 373.488 69.5286 373.299C69.2097 373.175 68.5043 372.983 67.4124 372.723C66.3205 372.458 65.5557 372.21 65.1179 371.977C64.5503 371.68 64.126 371.312 63.8449 370.875C63.5693 370.431 63.4314 369.937 63.4314 369.391C63.4314 368.791 63.6017 368.231 63.9422 367.713C64.2827 367.188 64.78 366.791 65.4341 366.521C66.0881 366.25 66.8151 366.115 67.6151 366.115C68.4962 366.115 69.2718 366.259 69.9421 366.545C70.6177 366.826 71.1366 367.242 71.4988 367.794C71.8609 368.345 72.0555 368.969 72.0826 369.667L70.5745 369.78C70.4934 369.029 70.2177 368.461 69.7475 368.077C69.2826 367.694 68.5935 367.502 67.68 367.502C66.7286 367.502 66.0341 367.677 65.5962 368.029C65.1638 368.375 64.9476 368.794 64.9476 369.286C64.9476 369.713 65.1016 370.064 65.4097 370.34C65.7124 370.615 66.5016 370.899 67.7773 371.191C69.0583 371.477 69.9367 371.729 70.4123 371.945C71.1042 372.264 71.615 372.669 71.9447 373.161C72.2745 373.648 72.4393 374.21 72.4393 374.848C72.4393 375.48 72.2582 376.077 71.8961 376.639C71.5339 377.196 71.0123 377.631 70.3313 377.945C69.6556 378.253 68.8934 378.407 68.0448 378.407C66.9692 378.407 66.0665 378.25 65.3368 377.937C64.6125 377.623 64.0422 377.153 63.626 376.526C63.2152 375.893 62.999 375.18 62.9774 374.385ZM74.4095 378.204V366.318H75.869V373.096L79.3229 369.594H81.2121L77.9203 372.788L81.5445 378.204H79.7445L76.8987 373.802L75.869 374.791V378.204H74.4095ZM82.712 367.996V366.318H84.1715V367.996H82.712ZM82.712 378.204V369.594H84.1715V378.204H82.712ZM86.3687 378.204V366.318H87.8281V378.204H86.3687ZM90.0659 378.204V366.318H91.5253V378.204H90.0659ZM98.5387 378.204V366.318H102.998C103.906 366.318 104.633 366.44 105.179 366.683C105.73 366.921 106.16 367.291 106.468 367.794C106.782 368.291 106.938 368.813 106.938 369.358C106.938 369.867 106.801 370.345 106.525 370.794C106.249 371.242 105.833 371.604 105.276 371.88C105.995 372.091 106.547 372.45 106.93 372.958C107.32 373.466 107.514 374.066 107.514 374.758C107.514 375.315 107.395 375.834 107.157 376.315C106.925 376.791 106.636 377.158 106.29 377.418C105.944 377.677 105.509 377.874 104.984 378.01C104.466 378.139 103.828 378.204 103.071 378.204H98.5387ZM100.112 371.312H102.682C103.379 371.312 103.879 371.267 104.182 371.175C104.582 371.056 104.882 370.858 105.082 370.583C105.287 370.307 105.39 369.961 105.39 369.545C105.39 369.15 105.295 368.804 105.106 368.507C104.917 368.204 104.647 367.999 104.295 367.891C103.944 367.777 103.341 367.721 102.487 367.721H100.112V371.312ZM100.112 376.802H103.071C103.579 376.802 103.936 376.783 104.141 376.745C104.503 376.68 104.806 376.572 105.049 376.42C105.293 376.269 105.493 376.05 105.649 375.764C105.806 375.472 105.884 375.137 105.884 374.758C105.884 374.315 105.771 373.931 105.544 373.607C105.317 373.277 105.001 373.048 104.595 372.918C104.195 372.783 103.617 372.715 102.86 372.715H100.112V376.802ZM62.9774 398.385L64.4611 398.256C64.5314 398.85 64.6935 399.339 64.9476 399.723C65.2071 400.102 65.607 400.41 66.1476 400.647C66.6881 400.88 67.2962 400.996 67.9719 400.996C68.5718 400.996 69.1016 400.907 69.561 400.729C70.0205 400.55 70.361 400.307 70.5826 399.999C70.8096 399.685 70.9231 399.345 70.9231 398.977C70.9231 398.604 70.815 398.28 70.5988 398.004C70.3826 397.723 70.0259 397.488 69.5286 397.299C69.2097 397.175 68.5043 396.983 67.4124 396.723C66.3205 396.458 65.5557 396.21 65.1179 395.977C64.5503 395.68 64.126 395.312 63.8449 394.875C63.5693 394.431 63.4314 393.937 63.4314 393.391C63.4314 392.791 63.6017 392.231 63.9422 391.713C64.2827 391.188 64.78 390.791 65.4341 390.521C66.0881 390.25 66.8151 390.115 67.6151 390.115C68.4962 390.115 69.2718 390.259 69.9421 390.545C70.6177 390.826 71.1366 391.242 71.4988 391.794C71.8609 392.345 72.0555 392.969 72.0826 393.667L70.5745 393.78C70.4934 393.029 70.2177 392.461 69.7475 392.077C69.2826 391.694 68.5935 391.502 67.68 391.502C66.7286 391.502 66.0341 391.677 65.5962 392.029C65.1638 392.375 64.9476 392.794 64.9476 393.286C64.9476 393.713 65.1016 394.064 65.4097 394.34C65.7124 394.615 66.5016 394.899 67.7773 395.191C69.0583 395.477 69.9367 395.729 70.4123 395.945C71.1042 396.264 71.615 396.669 71.9447 397.161C72.2745 397.648 72.4393 398.21 72.4393 398.848C72.4393 399.48 72.2582 400.077 71.8961 400.639C71.5339 401.196 71.0123 401.631 70.3313 401.945C69.6556 402.253 68.8934 402.407 68.0448 402.407C66.9692 402.407 66.0665 402.25 65.3368 401.937C64.6125 401.623 64.0422 401.153 63.626 400.526C63.2152 399.893 62.999 399.18 62.9774 398.385ZM74.4095 402.204V390.318H75.869V397.096L79.3229 393.594H81.2121L77.9203 396.788L81.5445 402.204H79.7445L76.8987 397.802L75.869 398.791V402.204H74.4095ZM82.712 391.996V390.318H84.1715V391.996H82.712ZM82.712 402.204V393.594H84.1715V402.204H82.712ZM86.3687 402.204V390.318H87.8281V402.204H86.3687ZM90.0659 402.204V390.318H91.5253V402.204H90.0659ZM107.084 398.037L108.657 398.434C108.328 399.726 107.733 400.712 106.874 401.393C106.02 402.069 104.974 402.407 103.736 402.407C102.455 402.407 101.412 402.147 100.606 401.629C99.8062 401.104 99.1954 400.348 98.7738 399.358C98.3576 398.369 98.1495 397.307 98.1495 396.172C98.1495 394.934 98.3846 393.856 98.8549 392.937C99.3306 392.013 100.004 391.313 100.874 390.837C101.749 390.356 102.712 390.115 103.76 390.115C104.949 390.115 105.949 390.418 106.76 391.023C107.571 391.629 108.136 392.48 108.455 393.577L106.906 393.942C106.63 393.077 106.23 392.448 105.706 392.053C105.182 391.659 104.522 391.461 103.728 391.461C102.814 391.461 102.049 391.68 101.433 392.118C100.822 392.556 100.393 393.145 100.144 393.885C99.8954 394.621 99.7711 395.38 99.7711 396.164C99.7711 397.175 99.917 398.058 100.209 398.815C100.506 399.566 100.966 400.129 101.587 400.502C102.209 400.875 102.882 401.061 103.606 401.061C104.487 401.061 105.233 400.807 105.844 400.299C106.455 399.791 106.868 399.037 107.084 398.037ZM62.9774 422.385L64.4611 422.256C64.5314 422.85 64.6935 423.339 64.9476 423.723C65.2071 424.102 65.607 424.41 66.1476 424.647C66.6881 424.88 67.2962 424.996 67.9719 424.996C68.5718 424.996 69.1016 424.907 69.561 424.729C70.0205 424.55 70.361 424.307 70.5826 423.999C70.8096 423.685 70.9231 423.345 70.9231 422.977C70.9231 422.604 70.815 422.28 70.5988 422.004C70.3826 421.723 70.0259 421.488 69.5286 421.299C69.2097 421.175 68.5043 420.983 67.4124 420.723C66.3205 420.458 65.5557 420.21 65.1179 419.977C64.5503 419.68 64.126 419.312 63.8449 418.875C63.5693 418.431 63.4314 417.937 63.4314 417.391C63.4314 416.791 63.6017 416.231 63.9422 415.713C64.2827 415.188 64.78 414.791 65.4341 414.521C66.0881 414.25 66.8151 414.115 67.6151 414.115C68.4962 414.115 69.2718 414.259 69.9421 414.545C70.6177 414.826 71.1366 415.242 71.4988 415.794C71.8609 416.345 72.0555 416.969 72.0826 417.667L70.5745 417.78C70.4934 417.029 70.2177 416.461 69.7475 416.077C69.2826 415.694 68.5935 415.502 67.68 415.502C66.7286 415.502 66.0341 415.677 65.5962 416.029C65.1638 416.375 64.9476 416.794 64.9476 417.286C64.9476 417.713 65.1016 418.064 65.4097 418.34C65.7124 418.615 66.5016 418.899 67.7773 419.191C69.0583 419.477 69.9367 419.729 70.4123 419.945C71.1042 420.264 71.615 420.669 71.9447 421.161C72.2745 421.648 72.4393 422.21 72.4393 422.848C72.4393 423.48 72.2582 424.077 71.8961 424.639C71.5339 425.196 71.0123 425.631 70.3313 425.945C69.6556 426.253 68.8934 426.407 68.0448 426.407C66.9692 426.407 66.0665 426.25 65.3368 425.937C64.6125 425.623 64.0422 425.153 63.626 424.526C63.2152 423.893 62.999 423.18 62.9774 422.385ZM74.4095 426.204V414.318H75.869V421.096L79.3229 417.594H81.2121L77.9203 420.788L81.5445 426.204H79.7445L76.8987 421.802L75.869 422.791V426.204H74.4095ZM82.712 415.996V414.318H84.1715V415.996H82.712ZM82.712 426.204V417.594H84.1715V426.204H82.712ZM86.3687 426.204V414.318H87.8281V426.204H86.3687ZM90.0659 426.204V414.318H91.5253V426.204H90.0659ZM98.6036 426.204V414.318H102.698C103.622 414.318 104.328 414.375 104.814 414.488C105.495 414.645 106.076 414.929 106.557 415.34C107.184 415.869 107.652 416.548 107.96 417.375C108.274 418.196 108.43 419.137 108.43 420.196C108.43 421.099 108.325 421.899 108.114 422.596C107.903 423.293 107.633 423.872 107.303 424.331C106.974 424.785 106.611 425.145 106.217 425.41C105.828 425.669 105.355 425.866 104.798 426.002C104.247 426.137 103.612 426.204 102.893 426.204H98.6036ZM100.176 424.802H102.714C103.498 424.802 104.112 424.729 104.555 424.583C105.003 424.437 105.36 424.231 105.625 423.966C105.998 423.593 106.287 423.093 106.493 422.466C106.703 421.834 106.809 421.069 106.809 420.172C106.809 418.929 106.603 417.975 106.193 417.31C105.787 416.64 105.293 416.191 104.709 415.964C104.287 415.802 103.609 415.721 102.674 415.721H100.176V424.802Z" fill="#2C2C2C"/>
<circle cx="46.0904" cy="349.952" r="8.19315" stroke="#B2B2B0" stroke-width="0.48195"/>
<circle cx="46.0904" cy="373.434" r="8.19315" stroke="#B2B2B0" stroke-width="0.48195"/>
<circle cx="46.0904" cy="396.446" r="8.19315" stroke="#B2B2B0" stroke-width="0.48195"/>
<circle cx="46.0904" cy="419.694" r="8.19315" stroke="#B2B2B0" stroke-width="0.48195"/>
</g>
<rect x="133" y="25" width="86" height="19" rx="9.5" fill="black"/>
<defs>
<clipPath id="clip0_7_1266">
<rect width="328" height="681" fill="white" transform="translate(11 10)"/>
</clipPath>
<clipPath id="clip1_7_1266">
<rect width="328" height="35.7228" fill="white" transform="translate(10.7188 9.7019)"/>
</clipPath>
</defs>
</svg>
